<?xml version="1.0" encoding="iso-8859-1"?>
<svg version="1.1" xmlns="http://www.w3.org/2000/svg" xmlns:xlink="http://www.w3.org/1999/xlink" x="0px" y="0px"
	 width="478.125px" height="478.125px" viewBox="0 0 478.125 478.125" 
	 xml:space="preserve">
<g>
	<path d="M239.062,0C107.1,0,0,107.1,0,239.062c0,131.963,107.1,239.062,239.062,239.062c131.963,0,239.062-107.1,239.062-239.062
		C478.125,107.1,371.025,0,239.062,0z M325.125,153c11.475,0,19.125,7.65,19.125,19.125s-7.65,19.125-19.125,19.125
		S306,183.6,306,172.125S313.65,153,325.125,153z M153,153c11.475,0,19.125,7.65,19.125,19.125S164.475,191.25,153,191.25
		s-19.125-7.65-19.125-19.125S141.525,153,153,153z M302.175,361.463c-36.337-1.913-55.462-24.863-63.112-40.163
		c-7.65,15.3-26.775,38.25-63.112,40.163c-51.638,1.912-99.45-45.9-99.45-63.113c19.125,21.038,53.55,22.95,70.763,15.301
		c26.775-13.388,22.95-38.25,42.075-55.463c11.475-9.562,26.775-9.562,40.163,0c1.912,1.912,5.737,3.825,7.65,7.65
		c1.912-1.913,3.824-5.738,7.649-7.65c13.388-9.562,30.601-9.562,40.163,0c19.125,17.213,15.3,42.075,42.074,55.463
		c19.125,9.562,51.638,7.649,70.763-15.301C401.625,315.562,353.812,363.375,302.175,361.463z"/>
</g>
</svg>
